<mxfile host="Electron" agent="Mozilla/5.0 (X11; Linux x86_64) AppleWebKit/537.36 (KHTML, like Gecko) draw.io/28.2.5 Chrome/138.0.7204.251 Electron/37.6.1 Safari/537.36" version="28.2.5">
  <diagram name="第 1 页" id="A2wYnKDMZFF023bxGnZ8">
    <mxGraphModel dx="2253" dy="788" grid="1" gridSize="10" guides="1" tooltips="1" connect="1" arrows="1" fold="1" page="1" pageScale="1" pageWidth="827" pageHeight="1169" math="0" shadow="0">
      <root>
        <mxCell id="0" />
        <mxCell id="1" parent="0" />
        <mxCell id="lc5mf7nCTQjh2SExQ85K-13" value="" style="rounded=0;whiteSpace=wrap;html=1;" parent="1" vertex="1">
          <mxGeometry x="-280" y="380" width="1250" height="540" as="geometry" />
        </mxCell>
        <mxCell id="mEVcy1A5f8fxIJjsYzMS-37" value="&lt;div&gt;spring&lt;/div&gt;" style="shape=module;align=left;spacingLeft=20;align=center;verticalAlign=top;whiteSpace=wrap;html=1;fontSize=20;fillColor=#ffcc99;strokeColor=#36393d;" parent="1" vertex="1">
          <mxGeometry x="90" y="830" width="160" height="50" as="geometry" />
        </mxCell>
        <mxCell id="dmNFYRCC_EVl9eXUpVEG-11" value="springboot&lt;div&gt;&lt;br&gt;&lt;/div&gt;" style="shape=module;align=left;spacingLeft=20;align=center;verticalAlign=top;whiteSpace=wrap;html=1;fontSize=20;fillColor=#ffe6cc;strokeColor=#d79b00;" parent="1" vertex="1">
          <mxGeometry x="310" y="830" width="160" height="50" as="geometry" />
        </mxCell>
        <mxCell id="HinASl0Kt4Q7WlVEa3fy-1" value="&lt;div&gt;dubbo&lt;/div&gt;" style="shape=module;align=left;spacingLeft=20;align=center;verticalAlign=top;whiteSpace=wrap;html=1;fontSize=20;fillColor=#fff2cc;strokeColor=#d6b656;" parent="1" vertex="1">
          <mxGeometry x="520" y="830" width="160" height="50" as="geometry" />
        </mxCell>
        <mxCell id="DeR-ES4d_NRpQkdwP4V--1" value="«interface»&lt;br&gt;&lt;b&gt;ImportBeanDefinitionRegistrar&lt;/b&gt;" style="html=1;whiteSpace=wrap;fontSize=20;fillColor=#ffcc99;strokeColor=#36393d;" parent="1" vertex="1">
          <mxGeometry x="175" y="430" width="350" height="50" as="geometry" />
        </mxCell>
        <mxCell id="DeR-ES4d_NRpQkdwP4V--3" value="DubboConfigConfigurationRegistrar" style="html=1;whiteSpace=wrap;fontSize=20;verticalAlign=middle;align=center;fontStyle=0;fillColor=#fff2cc;strokeColor=#d6b656;" parent="1" vertex="1">
          <mxGeometry x="570" y="710" width="360" height="51" as="geometry" />
        </mxCell>
        <mxCell id="DeR-ES4d_NRpQkdwP4V--4" value="DubboComponentScanRegistrar" style="html=1;whiteSpace=wrap;fontSize=20;verticalAlign=middle;align=center;fontStyle=0;fillColor=#fff2cc;strokeColor=#d6b656;" parent="1" vertex="1">
          <mxGeometry x="170" y="710" width="360" height="51" as="geometry" />
        </mxCell>
        <mxCell id="DeR-ES4d_NRpQkdwP4V--5" value="AutoConfigurationPackages$Registrar" style="html=1;whiteSpace=wrap;fontSize=20;verticalAlign=middle;align=center;fontStyle=0;fillColor=#ffe6cc;strokeColor=#d79b00;" parent="1" vertex="1">
          <mxGeometry x="-250" y="710" width="380" height="51" as="geometry" />
        </mxCell>
        <mxCell id="DeR-ES4d_NRpQkdwP4V--6" value="" style="endArrow=block;dashed=1;endFill=0;endSize=12;html=1;rounded=0;exitX=0.5;exitY=0;exitDx=0;exitDy=0;entryX=0.5;entryY=1;entryDx=0;entryDy=0;" parent="1" source="DeR-ES4d_NRpQkdwP4V--3" target="DeR-ES4d_NRpQkdwP4V--1" edge="1">
          <mxGeometry width="160" relative="1" as="geometry">
            <mxPoint x="140" y="530" as="sourcePoint" />
            <mxPoint x="300" y="530" as="targetPoint" />
          </mxGeometry>
        </mxCell>
        <mxCell id="DeR-ES4d_NRpQkdwP4V--8" value="" style="endArrow=block;dashed=1;endFill=0;endSize=12;html=1;rounded=0;exitX=0.5;exitY=0;exitDx=0;exitDy=0;entryX=0.5;entryY=1;entryDx=0;entryDy=0;" parent="1" source="DeR-ES4d_NRpQkdwP4V--4" target="DeR-ES4d_NRpQkdwP4V--1" edge="1">
          <mxGeometry width="160" relative="1" as="geometry">
            <mxPoint x="310" y="650" as="sourcePoint" />
            <mxPoint x="470" y="650" as="targetPoint" />
          </mxGeometry>
        </mxCell>
        <mxCell id="DeR-ES4d_NRpQkdwP4V--9" value="" style="endArrow=block;dashed=1;endFill=0;endSize=12;html=1;rounded=0;exitX=0.5;exitY=0;exitDx=0;exitDy=0;entryX=0.5;entryY=1;entryDx=0;entryDy=0;" parent="1" source="DeR-ES4d_NRpQkdwP4V--5" target="DeR-ES4d_NRpQkdwP4V--1" edge="1">
          <mxGeometry width="160" relative="1" as="geometry">
            <mxPoint x="570" y="640" as="sourcePoint" />
            <mxPoint x="730" y="640" as="targetPoint" />
          </mxGeometry>
        </mxCell>
      </root>
    </mxGraphModel>
  </diagram>
</mxfile>
